<?xml version="1.0" standalone="no"?>
<!DOCTYPE svg PUBLIC "-//W3C//DTD SVG 20010904//EN"
 "http://www.w3.org/TR/2001/REC-SVG-20010904/DTD/svg10.dtd">
<svg version="1.0" xmlns="http://www.w3.org/2000/svg"
 width="421.000000pt" height="421.000000pt" viewBox="0 0 421.000000 421.000000"
 preserveAspectRatio="xMidYMid meet">
<metadata>
Created by potrace 1.11, written by Peter Selinger 2001-2013
</metadata>
<g transform="translate(0.000000,421.000000) scale(0.100000,-0.100000)"
fill="#000000" stroke="none">
<path d="M2339 3903 c-19 -15 -47 -40 -64 -55 -16 -16 -38 -31 -47 -34 -10 -3
-18 -10 -18 -15 0 -5 -7 -9 -15 -9 -8 0 -15 -4 -15 -9 0 -5 -11 -12 -24 -15
-13 -3 -31 -8 -39 -12 -12 -4 -17 6 -22 45 -11 84 -20 88 -93 40 -35 -23 -138
-76 -230 -118 -92 -43 -194 -95 -227 -118 -81 -55 -176 -148 -212 -206 l-30
-48 -22 61 c-19 52 -25 60 -36 49 -15 -16 -53 -80 -87 -149 -13 -25 -26 -47
-30 -50 -5 -4 -24 -45 -33 -70 -1 -3 -7 -18 -14 -35 -25 -61 -34 -252 -19
-395 15 -132 17 -149 38 -271 12 -68 24 -144 27 -169 3 -25 13 -69 22 -97 18
-53 13 -66 -15 -38 -29 29 -63 17 -90 -30 -14 -26 -18 -150 -5 -206 5 -24 13
-60 16 -79 3 -19 10 -53 15 -75 5 -22 10 -43 10 -47 0 -5 -30 -8 -66 -8 -36 0
-74 -5 -85 -10 -35 -19 -49 -63 -44 -137 2 -37 7 -131 10 -208 3 -77 7 -165
10 -195 2 -30 7 -120 10 -200 l6 -145 -30 -20 c-17 -11 -31 -23 -31 -27 0 -4
-11 -18 -25 -32 -14 -14 -25 -29 -25 -35 0 -5 -6 -16 -13 -23 -17 -17 -41 -70
-65 -143 -22 -68 -55 -197 -68 -267 l-5 -26 166 -1 c91 -1 176 -5 188 -9 27
-9 2179 -8 2193 1 6 3 88 7 183 8 l172 2 -7 41 c-18 111 -93 344 -121 377 -7
8 -13 21 -13 27 0 6 -30 42 -66 79 l-66 68 7 120 c4 66 8 152 10 190 1 39 6
131 10 205 5 74 9 175 9 223 1 87 0 89 -29 113 -25 20 -41 24 -94 24 l-63 0 6
33 c4 17 9 41 11 52 9 41 15 71 21 95 10 44 16 169 10 204 -13 67 -58 93 -104
60 -13 -9 -25 -14 -27 -12 -2 2 5 29 15 61 19 56 23 80 35 182 4 28 8 61 10
75 17 118 24 214 26 350 1 88 -4 119 -26 190 -27 86 -141 327 -165 350 -3 3
-21 29 -39 58 -18 28 -37 52 -42 52 -8 0 -12 -37 -11 -102 0 -16 -2 -28 -5
-28 -15 0 -69 75 -115 160 -28 52 -55 97 -60 98 -4 2 -8 9 -8 15 0 7 -15 33
-34 60 -26 36 -36 44 -44 34 -10 -12 -22 -54 -24 -84 -3 -30 -15 -7 -41 75
-15 48 -38 109 -50 136 l-22 48 -18 -23 c-51 -70 -46 -68 -47 -19 -1 68 -11
77 -51 43z"/>
</g>
</svg>
