<?xml version="1.0" standalone="no"?>
<!DOCTYPE svg PUBLIC "-//W3C//DTD SVG 20010904//EN"
 "http://www.w3.org/TR/2001/REC-SVG-20010904/DTD/svg10.dtd">
<svg version="1.0" xmlns="http://www.w3.org/2000/svg"
 width="200.000000pt" height="200.000000pt" viewBox="0 0 200.000000 200.000000"
 preserveAspectRatio="xMidYMid meet">
<metadata>
Created by potrace 1.11, written by Peter Selinger 2001-2013
</metadata>
<g transform="translate(0.000000,200.000000) scale(0.100000,-0.100000)"
fill="#000000" stroke="none">
<path d="M664 1857 c-38 -23 -70 -45 -72 -49 -2 -5 -10 -8 -18 -8 -8 0 -23 -9
-34 -20 -11 -11 -20 -18 -20 -15 0 3 -9 1 -20 -5 -11 -6 -18 -14 -16 -18 3 -5
-4 -8 -14 -9 -11 -1 -40 -16 -64 -32 -25 -17 -49 -31 -55 -31 -6 0 -11 -4 -11
-9 0 -5 -14 -14 -31 -20 -17 -6 -28 -15 -25 -20 3 -5 -2 -8 -12 -7 -9 0 -16
-4 -15 -10 1 -7 -5 -11 -15 -10 -15 1 -17 -13 -17 -139 -1 -102 3 -146 13
-164 8 -13 9 -20 3 -17 -12 8 -13 -7 -11 -149 4 -193 7 -251 14 -263 4 -7 3
-12 -2 -12 -10 0 -8 -62 2 -79 4 -6 2 -11 -4 -11 -6 0 -9 -4 -6 -8 3 -5 6 -65
7 -133 1 -70 7 -130 13 -138 8 -11 8 -13 0 -8 -8 4 -11 -8 -10 -38 1 -40 4
-45 39 -64 22 -12 44 -18 49 -14 7 3 8 1 4 -6 -8 -12 33 -32 48 -23 5 3 6 0 2
-6 -4 -7 3 -14 19 -18 14 -3 25 -11 25 -16 0 -6 7 -7 16 -4 8 3 13 2 10 -2 -2
-4 21 -21 52 -37 31 -17 59 -33 62 -36 3 -3 13 -5 23 -3 9 1 15 -2 12 -6 -3
-5 11 -18 32 -28 21 -11 58 -31 83 -45 l45 -25 65 39 c36 21 76 44 90 51 14 7
27 15 30 19 3 3 20 15 39 25 18 10 41 24 50 29 9 6 61 37 116 69 99 59 159
108 146 122 -3 4 -1 4 6 0 11 -6 111 46 123 64 3 4 14 10 25 14 11 3 43 21 71
39 28 18 58 36 68 40 10 4 14 12 10 18 -4 8 -3 9 5 5 6 -4 24 0 39 11 35 23
59 38 98 58 l31 16 -4 297 c-3 214 -7 300 -16 308 -25 23 -190 103 -200 97 -6
-3 -7 -1 -3 5 7 12 -27 35 -38 25 -3 -3 -6 -1 -6 6 0 7 -4 9 -10 6 -5 -3 -10
-1 -10 5 0 6 -17 19 -38 28 -20 9 -53 26 -72 38 -153 91 -180 105 -191 98 -7
-4 -9 -3 -6 3 4 5 -6 16 -21 24 -15 7 -44 24 -64 36 -21 13 -38 20 -38 16 0
-5 -4 -3 -8 3 -6 10 -77 51 -192 112 -19 10 -56 30 -81 45 l-46 26 -69 -42z
m59 8 c-3 -9 -8 -14 -10 -11 -3 3 -2 9 2 15 9 16 15 13 8 -4z m-113 -145 c0
-5 -2 -10 -4 -10 -3 0 -8 5 -11 10 -3 6 -1 10 4 10 6 0 11 -4 11 -10z m160 6
c0 -3 -4 -8 -10 -11 -5 -3 -10 -1 -10 4 0 6 5 11 10 11 6 0 10 -2 10 -4z
m-160 -80 c0 -3 -4 -8 -10 -11 -5 -3 -10 -1 -10 4 0 6 5 11 10 11 6 0 10 -2
10 -4z m155 -6 c3 -5 1 -10 -4 -10 -6 0 -11 5 -11 10 0 6 2 10 4 10 3 0 8 -4
11 -10z m240 0 c3 -5 1 -10 -4 -10 -6 0 -11 5 -11 10 0 6 2 10 4 10 3 0 8 -4
11 -10z m-235 -80 c0 -5 -5 -10 -11 -10 -5 0 -7 5 -4 10 3 6 8 10 11 10 2 0 4
-4 4 -10z m335 -8 c-3 -3 -11 0 -18 7 -9 10 -8 11 6 5 10 -3 15 -9 12 -12z
m-641 -30 c3 -5 -1 -9 -9 -9 -8 0 -12 4 -9 9 3 4 7 8 9 8 2 0 6 -4 9 -8z m-94
-36 c0 -3 -4 -8 -10 -11 -5 -3 -10 -1 -10 4 0 6 5 11 10 11 6 0 10 -2 10 -4z
m195 -35 c3 -5 2 -12 -3 -15 -5 -3 -9 1 -9 9 0 17 3 19 12 6z m165 -7 c0 -8
-19 -13 -24 -6 -3 5 1 9 9 9 8 0 15 -2 15 -3z m74 -10 c3 -8 2 -12 -4 -9 -6 3
-10 10 -10 16 0 14 7 11 14 -7z m-437 -29 c0 -8 -4 -12 -9 -9 -5 3 -6 10 -3
15 9 13 12 11 12 -6z m208 -45 c3 -6 -1 -7 -9 -4 -18 7 -21 14 -7 14 6 0 13
-4 16 -10z m72 -25 c0 -8 -4 -12 -9 -9 -5 3 -6 10 -3 15 9 13 12 11 12 -6z
m-282 -164 c3 -5 2 -12 -3 -15 -5 -3 -9 1 -9 9 0 17 3 19 12 6z m965 -11 c0
-5 -5 -10 -11 -10 -5 0 -7 5 -4 10 3 6 8 10 11 10 2 0 4 -4 4 -10z m80 0 c0
-5 -2 -10 -4 -10 -3 0 -8 5 -11 10 -3 6 -1 10 4 10 6 0 11 -4 11 -10z m235 0
c3 -5 1 -10 -4 -10 -6 0 -11 5 -11 10 0 6 2 10 4 10 3 0 8 -4 11 -10z m-75
-80 c0 -5 -2 -10 -4 -10 -3 0 -8 5 -11 10 -3 6 -1 10 4 10 6 0 11 -4 11 -10z
m0 -80 c0 -5 -5 -10 -11 -10 -5 0 -7 5 -4 10 3 6 8 10 11 10 2 0 4 -4 4 -10z
m160 -80 c0 -5 -2 -10 -4 -10 -3 0 -8 5 -11 10 -3 6 -1 10 4 10 6 0 11 -4 11
-10z m-240 -80 c0 -5 -5 -10 -11 -10 -5 0 -7 5 -4 10 3 6 8 10 11 10 2 0 4 -4
4 -10z m194 -38 c3 -5 -1 -9 -9 -9 -8 0 -12 4 -9 9 3 4 7 8 9 8 2 0 6 -4 9 -8z
m-1239 -42 c3 -5 1 -10 -4 -10 -6 0 -11 5 -11 10 0 6 2 10 4 10 3 0 8 -4 11
-10z m85 6 c0 -3 -4 -8 -10 -11 -5 -3 -10 -1 -10 4 0 6 5 11 10 11 6 0 10 -2
10 -4z m955 -6 c3 -5 1 -10 -4 -10 -6 0 -11 5 -11 10 0 6 2 10 4 10 3 0 8 -4
11 -10z m-1011 -38 c3 -5 -1 -9 -9 -9 -8 0 -12 4 -9 9 3 4 7 8 9 8 2 0 6 -4 9
-8z m-184 -42 c0 -5 -2 -10 -4 -10 -3 0 -8 5 -11 10 -3 6 -1 10 4 10 6 0 11
-4 11 -10z m1280 6 c0 -3 -4 -8 -10 -11 -5 -3 -10 -1 -10 4 0 6 5 11 10 11 6
0 10 -2 10 -4z m-1006 -44 c3 -5 -1 -9 -9 -9 -8 0 -12 4 -9 9 3 4 7 8 9 8 2 0
6 -4 9 -8z m-79 -21 c3 -5 2 -12 -3 -15 -5 -3 -9 1 -9 9 0 17 3 19 12 6z m360
-101 c3 -5 1 -10 -4 -10 -6 0 -11 5 -11 10 0 6 2 10 4 10 3 0 8 -4 11 -10z
m85 0 c0 -5 -5 -10 -11 -10 -5 0 -7 5 -4 10 3 6 8 10 11 10 2 0 4 -4 4 -10z
m237 -75 c0 -8 -4 -12 -9 -9 -5 3 -6 10 -3 15 9 13 12 11 12 -6z m-562 -5 c3
-5 1 -10 -4 -10 -6 0 -11 5 -11 10 0 6 2 10 4 10 3 0 8 -4 11 -10z m-155 -80
c0 -5 -5 -10 -11 -10 -5 0 -7 5 -4 10 3 6 8 10 11 10 2 0 4 -4 4 -10z m80 0
c0 -5 -2 -10 -4 -10 -3 0 -8 5 -11 10 -3 6 -1 10 4 10 6 0 11 -4 11 -10z m475
0 c3 -5 1 -10 -4 -10 -6 0 -11 5 -11 10 0 6 2 10 4 10 3 0 8 -4 11 -10z m85 0
c0 -5 -5 -10 -11 -10 -5 0 -7 5 -4 10 3 6 8 10 11 10 2 0 4 -4 4 -10z m-320
-160 c0 -5 -2 -10 -4 -10 -3 0 -8 5 -11 10 -3 6 -1 10 4 10 6 0 11 -4 11 -10z"/>
</g>
</svg>
